<?xml version="1.0" encoding="UTF-8" standalone="no"?>
<svg id="svg4258" xmlns:rdf="http://www.w3.org/1999/02/22-rdf-syntax-ns#" xmlns="http://www.w3.org/2000/svg" height="3144" viewBox="0 0 3501 3144" width="3501" version="1.1" xmlns:cc="http://creativecommons.org/ns#" xmlns:dc="http://purl.org/dc/elements/1.1/">
<ellipse id="path4133" rx="1732.4" ry="1552" transform="rotate(-12.588)" cy="1905.8" cx="1383.8" fill="#ff8838"/>
<path id="path4268" d="m1574.5 3143c-165.1-4.0648-296.76-29.716-534.47-104.13-44.62-14-130.5-51-168-72.4-132.28-75.4-225.77-140.7-353.51-247-19.256-16.029-35.565-29.329-36.244-29.557-5.1382-1.7217-113.34-104.59-128.57-122.24-49.874-57.769-83.459-105.67-117.21-167.18-4.8287-8.8-10.362-18.475-12.296-21.5-30.199-47.236-88.764-170.95-113.84-240.49-33.918-94-75.527-263-87.273-354.5-1.5683-12.211-2.8913-20.681-5.6233-36-9.9475-55.779-13.325-93.305-9.856-109.5 0.23563-1.1 0.87369-24.725 1.4179-52.5 1.4905-76.066 3.8178-114.13 7.9731-130.38 2.872-11.237 4.7486-22.37 8.0264-47.616 6.4136-49.399 14.228-89.362 28.55-146 13.204-52.216 50.594-172.94 65.558-211.67 3.2237-8.3436 6.3689-17.344 6.9893-20 2.6983-11.552 5.5615-18.764 14.582-36.729 23.91-47.62 73.32-153.25 73.32-156.75 0-3.56 107.76-153.04 143.35-198.85 188.94-243.16 376.39-384.76 659.35-498.08 275-110.11 521.5-145.24 974.3-138.9 4.125 0.057824 13.351-0.19135 20.502-0.55373 11.683-0.59201 13.645-0.44244 19.333 1.4739 4.0172 1.3533 12.114 2.6634 22.152 3.5845 8.7017 0.79846 31.052 3.2344 49.666 5.4131 18.615 2.1787 41.27 4.6902 50.345 5.581 9.075 0.89078 17.4 2.0064 18.5 2.4792 1.1 0.47279 5.825 1.3692 10.5 1.992 14.535 1.9365 25.912 4.6397 43.519 10.341 20.844 6.7487 26.619 8.2362 37.481 9.6542 35.736 4.665 166.7 43.613 213.34 63.447 13.228 5.6248 25.871 10.047 67.158 23.49 58.582 19.074 89.113 32.619 149 66.103 32.736 18.303 40.293 22.363 66.352 35.646 29.331 14.951 44.187 24.048 66.661 40.823 18.026 13.454 26.234 18.544 34.121 21.157 5.8591 1.9412 17.796 9.851 29.366 19.458 10.121 8.4039 25.103 18.569 37.468 25.419 8.5309 4.7266 16.055 11.065 19.701 16.597 0.9177 1.3924 6.9985 6.1861 13.513 10.653 27.141 18.609 93.666 80.109 138.18 127.74 39.269 42.021 62.298 68.792 72.548 84.337 3.6818 5.5838 13.322 18.588 21.423 28.898 67.598 86.031 86.367 114.07 122.68 183.25 14.064 26.794 23.215 42.215 29.075 49 7.9758 9.2337 25.623 47.552 28.356 61.57 1.8327 9.4005 6.5441 22.925 18.09 51.93 13.884 34.877 21.22 55.06 29.441 81 8.7931 27.743 13.08 39.629 17.13 47.5 4.4375 8.6226 7.3737 19.263 13.482 48.857 5.6114 27.184 9.8637 44.478 15.403 62.643 9.8889 32.428 20.702 89.255 26.451 139 9.5942 83.03 11.315 269.6 3.0359 329.19-1.6426 11.825-3.4369 27.869-3.9874 35.654-2.6083 36.888-11.216 90.854-21.442 134.42-5.257 22.4-10.177 46.074-19.063 91.731-14.39 73.939-25.693 115.09-39.691 144.5-2.7486 5.775-6.921 16.125-9.272 23-20.495 59.932-50.61 124.07-96.015 204.48-5.8955 10.442-12.754 23.042-15.241 28-9.0558 18.057-29.677 52.914-38.758 65.515-1.7837 2.475-11.769 18.69-22.19 36.033s-21.779 35.097-25.24 39.453c-3.4614 4.3558-6.5175 8.5034-6.7912 9.2167s-1.012 1.3025-1.6407 1.3093c-0.6286 0.01-4.7277 5.0693-9.1089 11.25-18.742 26.44-22.839 31.185-64.52 74.738-27.84 29.09-45.229 48.345-49.534 54.85-1.4333 2.1659-5.3389 6.1231-8.6791 8.7937-5.9319 4.7429-22.801 22.08-22.801 23.434 0 0.3748-6.4125 6.2983-14.25 13.164-7.8375 6.8651-21 18.661-29.25 26.213-22.374 20.482-37.79 33.157-44.356 36.472-3.2247 1.6278-9.1127 5.9418-13.084 9.5866-19.946 18.304-76.346 59.526-103.56 75.69-15.904 9.4465-51.404 28.806-106 57.808-28.548 15.164-40.522 21.81-73.5 40.795-33.346 19.197-56.531 30.103-95 44.689-30.375 11.517-53.863 21.087-78.5 31.986-42.073 18.612-56.4 23.773-87.5 31.521-30.151 7.5118-55.087 14.971-97 29.015-58.882 19.73-112.84 34.258-133.49 35.941-6.7667 0.5515-14.296 1.8925-19.091 3.4003-10.766 3.385-145.78 26.635-209.42 36.063-137.18 20.323-250.39 28.298-362.5 25.538zm212.27-55.617 11.273-0.6496-13.312-13.596c-55.009-56.18-80.036-90.166-103.71-140.84-4.9149-10.519-6.0531-13.849-5.5373-16.198 0.8471-3.8568-7.5961-20.617-17.456-34.652-20.803-29.61-28.049-48.924-21.257-56.66 5.1251-5.8365 13.731 3.7723 30.344 33.881 9.6048 17.408 23.675 40.369 24.736 40.369 0.4067 0 4.1981 4.8375 8.4253 10.75 4.2273 5.9125 9.9031 13.224 12.613 16.247 2.71 3.0233 4.5839 5.7233 4.1643 6-0.4195 0.2766 5.2662 8.8279 12.635 19.003 59.118 81.632 78.988 102.52 122.23 128.5 7.5708 4.5477 5.9961 4.5092 38.076 0.9317 40.541-4.5209 82.926-11.349 129.89-20.925 25.724-5.2449 85.154-18.171 89.609-19.49 1.65-0.4886 9.0584-1.8619 16.463-3.0519 18.153-2.9173 36.926-7.6298 63.42-15.92 12.164-3.8065 34.495-10.522 49.624-14.924 43.754-12.731 96.662-30.11 148.28-48.708l7.7898-2.8065 16.806-21.051c65.211-81.684 85.357-121.92 127.69-255.05 14.723-46.299 16.952-49.658 27.217-41.02 5.2189 4.3914 5.0251 5.7266-5.7689 39.754-42.17 132.94-64.988 181-118.73 250.1-5.4121 6.959-7.7243 10.615-6.4596 10.213 1.0834-0.3438 4.4867-1.0348 7.563-1.5355 12.212-1.9876 67.168-27.079 159.6-72.87 37.854-18.753 52.643-27.118 97.5-55.146 28.409-17.751 58.806-35.592 71.926-42.215 17.297-8.7316 35.417-21.725 51.574-36.983 9.3364-8.817 13.048-11.6 19.728-14.793 9.0737-4.3368 7.4148-2.4766 25.87-29.009 4.7819-6.875 18.909-26.225 31.393-43 44.765-60.151 54.26-76.871 79.217-139.5 10.264-25.757 10.543-26.32 13.878-28.045 4.3247-2.2363 7.7288-1.7958 10.94 1.416 5.2195 5.2194 5.1207 5.7435-6.5683 34.857-22.551 56.167-37.01 83.066-65.993 122.77l-8.7595 12 16.179-15.75c8.8985-8.6625 16.672-15.75 17.275-15.75 5.0811 0 100.43-94.656 134.48-133.5 17.322-19.762 47.381-59.574 77.864-103.13 8.8-12.573 23.615-32.988 32.922-45.367 26.127-34.75 56.93-79.984 69.91-102.66 24.004-41.94 43.345-82.248 51.988-108.34 3.0056-9.075 7.6011-21.675 10.212-28 11.298-27.366 25.328-75.917 29.909-103.5 2.8831-17.36 7.9119-33.604 17.436-56.324 7.8754-18.786 12.609-36.634 17.684-66.676 1.9513-11.55 6.6581-37.28 10.46-57.177 19.284-100.93 28.812-247.21 25.914-397.82-1.4879-77.319-2.5121-86.747-17.052-156.99-17.777-85.881-20.984-97.688-46.851-172.51-5.0387-14.575-12.54-37.525-16.67-51-13.282-43.34-20.725-61.641-27.616-67.912-4.0324-3.6694-6.1747-7.6431-11.369-21.088-2.0185-5.225-10.397-23.45-18.619-40.5-19.298-40.018-27.242-57.738-30.897-68.925-3.7065-11.342-8.0322-18.869-28.778-50.075-16.918-25.449-24.276-38.234-25.606-44.492-0.563-2.6491-3.3634-6.0813-11.606-14.225-8.6426-8.5382-12.83-13.747-20.475-25.47-12.25-18.784-18.378-27.002-43.532-58.383-11.273-14.063-23.138-29.588-26.367-34.5-7.5338-11.46-15.854-21.4-33.002-39.43-7.585-7.975-26.937-28.9-43.005-46.5-47.111-51.604-68.401-70.884-168.4-152.5-54.714-44.656-65.755-51.792-91.093-58.868-5.775-1.6127-19.5-5.4397-30.5-8.5044-67.073-18.687-248.18-13.835-266.6 7.1427-6.2511 7.1196-5.5921 8.1037 37.832 56.495 56.883 63.391 68.125 81.734 50.088 81.734-16.474 0-54.49-29.074-111.8-85.501-34.363-33.834-47.192-45.797-57.267-53.4l-5.7499-4.3391-20.25-2.3252c-89.563-10.284-232.86-6.0549-359.75 10.617-39.207 5.1512-57.354 3.4667-67.75-6.2888-14.05-13.185 35.553-26.371 123.25-32.764 34.95-2.5476 48.932-2.9898 125.5-3.9685 118.17-1.5105 130.16-2.6045 113.73-10.378-22.689-10.734-95.915-18.538-147.73-15.745-122.9 6.624-149.47 9.1978-160.33 15.532-5.3752 3.1348-15.68 5.9649-33.172 9.1098-40.656 7.3097-44.516 15.543-29.045 61.95 6.9144 20.741 14.242 37.905 21.182 49.617 23.358 39.418 28.793 67.891 12.957 67.879-12.384-0.009-16.57-6.5499-41.921-65.496-31.121-72.364-30.769-71.983-70.629-76.474-35.619-4.014-100.92-7.2469-99.483-4.9254 0.4753 0.76894 3.5969 5.2235 6.937 9.8989 25.752 36.048 47.16 78.089 70.938 139.31 8.4918 21.864 8.7143 23.7 3.4125 28.161-3.4044 2.8646-6.6683 3.1893-10.765 1.0711-3.2926-1.7027-3.9042-2.9189-12.091-24.044-24.593-63.458-46.99-105.83-76.845-145.38l-8.5908-11.381-37.029 0.53814c-29.85 0.43381-41.801 1.0362-61.644 3.1071-13.538 1.4129-36.263 3.2189-50.5 4.0132-14.237 0.79436-26.785 1.7712-27.885 2.1709-1.1 0.39962-3.8235 1.531-6.0523 2.5142-7.2112 3.181-26.296 5.8489-63.948 8.9395-68.148 5.5938-119.28 14.82-128.17 23.127-13.71 12.811-69.035 135.48-73.385 162.7-2.9338 18.365-34.546 65.311-41.064 60.983-7.9704-5.2921-6.9165-34.379 2.1684-59.847 2.2245-6.2358 6.6729-20.372 9.8854-31.413 9.2561-31.814 19.591-56.8 37.257-90.076 32.205-60.661 29.924-64.046-37.422-55.56-96.884 12.208-166.68 26.243-202.64 40.749l-11.375 4.5879-23.625 0.21118c-23.343 0.20865-38.46 1.447-80.125 6.5633-25.325 3.1098-30 2.5426-30-3.6397 0-7.3148 6.6736-10.131 36.577-15.433 29.285-5.1927 74.038-13.615 135.92-25.579 140.24-27.113 156.68-29.389 218.67-30.275 46.06-0.65856 45.433-0.59373 44.43-4.587-8.0696-32.152-184.21-17.729-348.23 28.515-47.312 13.339-67.058 16.32-85.99 12.984-3.7806-0.66617-28.635-3.1546-55.232-5.5298l-48.358-4.3186-6.1424 3.5824c-113.86 66.37-205.85 145.18-284.55 243.74-7.4663 9.35-14.126 17.34-14.799 17.756-3.1815 1.9647-73.101 93.655-95.887 125.74-70.979 99.956-120.6 192.03-154.52 286.69-3.312 9.2434-6.4329 17.78-6.9352 18.971-4.5863 10.873-23.364 75.76-30.049 103.83-68.551 287.9-55.842 709.92 29.694 986 37.486 120.99 104.34 246.73 179.57 337.74 2.156 2.6081 5.0578 7.1081 6.4483 10 1.5961 3.3194 5.3932 8.0233 10.299 12.758 9.1946 8.8746 30.453 33.587 37.42 43.5 12.793 18.202 26.855 33.741 70.586 78 20.107 20.35 39.019 40.082 42.026 43.85 25.055 31.385 179.49 143.34 286.47 207.67 53.276 32.037 149.25 85.09 159.29 88.052 3.0624 0.9038 3.9187 1.529 3 2.1902-0.9097 0.6548-0.7546 0.7534 0.5303 0.3371 1.0631-0.3443 15.364 4.3463 34.5 11.315 52.104 18.976 105.67 37.436 147.18 50.723 0.9239 0.2957 1.1159 0.1446 0.5-0.3935-10.275-8.9761-27.225-23.387-44.045-37.446-38.091-31.838-50.464-44.236-75.651-75.799-7.6805-9.625-15.362-19.075-17.071-21-1.7085-1.925-5.3295-7.325-8.0467-12-2.7171-4.675-15.381-24.925-28.141-45-44.598-70.163-45.885-72.888-34.46-72.986 5.0758-0.044 17.986 13.995 40.91 44.486 30.022 39.931 54.917 67.004 85.859 93.369 4.0453 3.4469 8.9953 7.9245 11 9.9502 2.0048 2.0256 8.595 8.1517 14.645 13.614 6.05 5.4618 24.275 22.755 40.5 38.429 37.512 36.239 53.784 50.557 89.5 78.755 18.329 14.471 20.871 15.33 88 29.748 127.28 27.336 311.33 45.446 406.27 39.976zm135.2-447.1c-8.8795-4.9752-25.931-22.182-33.523-33.827-7.961-12.212-23.834-33.057-43.025-56.5-17.921-21.892-30.814-38.885-37.908-49.962-23.2-36.3-82.3-111-87.8-111-5.4324 0-29.822 20.418-62.712 52.5-34.299 33.456-60.269 58.107-96.981 92.056l-47.922 44.316c-54.719 50.603-69.402 48.609-98.57-13.386-12.737-27.071-27.805-56.958-35.537-70.487-7.9023-13.827-18.29-34.118-19.454-38-4.8084-16.042-38.367-77.404-48.055-87.868-13.526-14.609-32.544-13.34-51.462 3.433-11.502 10.198-22.078 18.499-38.5 30.216-18.689 13.335-36.792 27.598-64.688 50.967-20.02 16.771-32.63 26.517-59.846 46.252-5.6886 4.125-13.908 11.018-18.265 15.317-13.544 13.363-22.031 12.95-35.444-1.7267-15.671-17.147-52.788-95.266-87.378-183.9-25.666-65.77-24.86-65.616-105.88-20.235-76.198 42.681-83.032 45.606-89.93 38.498-8.0242-8.2684-15.387-26.536-25.127-62.343-5.5601-20.44-13.01-43.425-24.183-74.609-5.093-14.215-7.0437-21.455-20.205-75-10.586-43.066-28.007-108.73-38.04-143.38-7.6176-26.31-11.834-43.47-17.53-71.349-5.664-27.72-8.6316-38.544-13.11-47.819-3.3657-6.9695-4.0247-9.5081-4.9191-18.947-1.6468-17.38-4.1246-27.639-17.874-74.005-7.3392-24.749-6.8317-28.5 3.8558-28.5 16.284 0 26.19 22.411 35.582 80.5 8.6301 53.377 21.274 110.23 35.381 159.1 2.683 9.2941 8.2649 28.598 12.404 42.898 4.1392 14.3 10.703 37.475 14.586 51.5 3.8831 14.025 9.7481 33.638 13.033 43.585 3.2853 9.9467 12.5 39.872 20.478 66.5 34.269 114.38 40.781 125.21 66.873 111.21 18.493-9.927 25.248-21.817 19.744-34.75-8.2668-19.423-29.204-99.44-63.986-244.54-38.963-162.55-45.177-181.02-69.603-206.89-9.9063-10.494-17.646-20.066-36.279-44.871-12.688-16.89-21.927-28.135-28.251-34.384-5.3565-5.2938-7.5229-17.469-4.8323-27.158 2.6288-9.4667 7.308-5.6967 43.819 35.305 12.979 14.575 54.653 60.925 92.608 103 100.04 110.9 113.68 126.23 137.43 154.5 44.401 52.858 97.166 102.93 106.5 101.07 6.6652-1.3331 23.626-13.769 47.041-34.489 16.798-14.865 26.805-22.658 32.116-25.007 2.4993-1.1056 8.5468-5.3684 13.439-9.4729 4.892-4.1045 11.278-9.2209 14.191-11.37 2.9129-2.1488 11.463-8.4604 19.001-14.026 7.5375-5.5654 19.238-14.763 26-20.44 21.55-18.09 32.943-26.06 62.32-43.598 22.893-13.667 24.895-13.47 40.753 4.0064 11.788 12.992 15.938 19.563 18.624 29.492 0.7723 2.8544 3.3667 6.624 8.2588 12 8.4681 9.3056 20.061 24.577 36.317 47.838 42 60.101 92.93 118.39 108.68 124.37 5.1424 1.9538 14.248-5.7299 61.004-51.476 89.84-87.899 125.4-121.24 133.47-125.13 5.1125-2.4679 15.165 5.3337 49.878 38.709 9.9 9.5186 29.015 27.482 42.479 39.919 38.355 35.432 53.06 49.18 89.521 83.701 82.846 78.437 91.001 80.361 126.8 29.912 20.738-29.224 40.704-55.159 86.355-112.18 24.298-30.348 50.007-62.973 57.132-72.5 34.868-46.624 31.317-47.498 106.78 26.281 102.63 100.35 131.6 123.63 142.82 114.8 12.856-10.112 70.976-103.97 104.59-168.91 26.229-50.666 43.812-76 52.749-76 6.0593 0 34.22 18.393 40.99 26.772 6.8717 8.5054 18.525 19.2 39.278 36.047 24.191 19.638 35.567 29.152 50.5 42.236 36.729 32.181 53.631 40.338 63.172 30.488 9.5048-9.8132 70.109-103.54 76.322-118.03 1.31-3.0561 5.1592-8.01 10.434-13.428 8.9711-9.2154 13.572-15.339 13.572-18.064 0-2.4686 9.6072-17.897 24.643-39.574 7.2286-10.422 22.931-34.023 34.895-52.448 25.924-39.924 42.472-63.903 53.486-77.5 4.4551-5.5 13.941-17.285 21.079-26.19 25.953-32.374 43.712-43.351 59.111-36.54 8.9386 3.9539 8.2349 25.894-1.7086 53.267-5.6853 15.65-6.4377 18.194-9.3594 31.64-1.652 7.6023-5.5318 28.897-8.6218 47.322-3.0901 18.425-9.4556 55.325-14.146 82-14.233 80.953-46.209 278.69-56.438 349-5.8801 40.421-6.9731 42.552-22.424 43.72-12.117 0.9164-18.491-1.3174-31.374-10.995-23.006-17.282-57.694-38.857-70.286-43.717-25.115-9.6936-30.229-4.9103-42.758 39.992-2.2252 7.975-7.8961 26.65-12.602 41.5s-13.973 46.793-20.594 70.985c-35.656 130.29-38.547 131.31-110.18 39.015-16.019-20.64-30.004-35.982-41.51-45.536-11.386-9.4546-19.154-18.218-22.598-25.491-12.97-27.393-26.591-12.247-76.262 84.796-64.607 126.22-84.124 157.8-95.348 154.23-9.4335-2.9941-57.519-46.139-126.93-113.89-43.435-42.395-59.603-56.657-69.073-60.932-1.4401-0.65-8.2236-1.1481-16-1.1749-12.298-0.042-13.945-0.2667-18.5-2.5214-8.0046-3.9623-27.34-3.5641-40.5 0.8342-30.895 10.326-48.144 29.665-112.53 126.17-40.258 60.34-40.66 61.501-28.042 81.007 16.872 26.082 31.75 12.308 109.09-100.99 38.029-55.712 60.036-83.082 65.666-81.669 13.331 3.3458-12.59 48.574-90.076 157.17-58.337 81.759-63.119 86.345-80.106 76.827zm-447.93-69.938c8.0603-2.3897 11.793-4.5622 22.359-13.012 11.286-9.0255 10.863-7.1798 4.1736-18.211-7.8691-12.977-20.254-35.627-38.092-69.667-31.716-60.52-35.886-66.294-58.509-81.004-25.398-16.514-47.407-26.116-55.313-24.132-9.4449 2.3705-9.3226 18.122 0.2184 28.136 5.9456 6.2404 8.7322 10.924 25.586 43 37.462 71.298 67.421 126.22 71.398 130.89 4.5822 5.3816 17.386 7.1984 28.179 3.9985zm855.53-65.865c9.3087-3.8895 20.389-19.622 52.139-74.025 30.772-52.729 47.526-80.2 65.414-107.26 24.633-37.263 24.228-49.03-1.6478-47.936-43.544 1.84-55.31 13.569-99.576 99.261-11.951 23.135-25.454 48.785-30.007 57-16.953 30.59-19.17 35.71-20.482 47.314-2.2129 19.559 16.001 33.235 34.16 25.648zm-1252-24.7c5.833-3.9034 10.802-11.702 12.419-19.49 2.1251-10.236 0.352-15.692-21.496-66.14-5.3308-12.309-12.836-30.084-16.679-39.5-22.1-54.4-40.9-74.7-69.11-74.7-23.432 0-21.917 13.32 8.4262 74.104 23.028 46.129 29.324 59.697 37.062 79.858 14.747 38.426 33.922 56.18 49.452 45.787zm1545-82.402c5.6188-3.6816 11.369-15.421 20.899-42.665 7.981-22.817 12.795-34.451 22.007-53.183 14.918-30.335 38.364-93.762 40.199-108.74 0.7934-6.48-2.82-8.1708-16.176-7.5686-27.619 1.2454-44.684 24.997-70.996 98.812-27.21 76.335-30.436 97.014-16.812 107.76 8.9243 7.0393 15.84 8.8902 20.88 5.5881zm-1123.2-185.9c10.25-5.1004 22.027-13.895 42.244-31.547 9.8066-8.5619 25.48-21.988 34.83-29.837 49.488-41.54 81.584-75.933 81.466-87.296-0.1125-10.778-17.168-38.8-23.616-38.8-2.6446 0-25.025 17.729-49.849 39.49-88.705 77.757-134.5 120.82-134.5 126.48 0 9.8533 22.347 24.76 37.425 24.965 3.7185 0.05 6.6589-0.7957 12-3.4535zm1330.4-5.3971c13.969-7.2193 19.593-22.184 23.707-63.082 2.9448-29.276 6.2302-44.409 12.484-57.5 4.3745-9.1579 7.02-19.787 7.02-28.204 0-10.223 2.8882-31.163 7.4889-54.296 2.4612-12.375 7.8392-41.175 11.951-64 8.5965-47.717 14.479-76.92 22.058-109.5 16.101-69.218 20.648-110.69 12.312-112.3-9.647-1.8577-46.316 53.444-48.853 73.676-1.3185 10.516-3.5191 21.198-9.8097 47.622-17.015 71.471-56.381 285.2-59.036 320.53-2.7639 36.772 5.2582 55.027 20.679 47.057zm-555.47-9.0624c27.498-11.482 27.216-20.771-1.3209-43.502-19.74-15.723-33.838-29.121-89.5-85.048-71.661-72.002-71.093-71.637-86.878-55.849-29.182 29.186-20.463 46.877 52.877 107.29 29.464 24.269 45.077 37.578 63.501 54.131 29.772 26.748 41.644 31.197 61.321 22.981zm-1170.8-65.5c31.114-6.3394 53.336-18.628 85-47.001 14.46-12.958 30.266-24.957 44.66-33.905 27.745-17.247 30.967-26.754 18.37-54.19-12.542-27.317-26.322-23.627-89.53 23.976-67.079 50.517-112 91.581-112 102.38 0 10.838 23.974 14.754 53.5 8.7376zm1518.1-35.073c26.709-16.722 24.925-29.44-7.9449-56.653-15.854-13.125-43.468-36.793-62.152-53.269-31.594-27.861-49.874-42.102-61.207-47.681l-6.2851-3.0941-3.9188 2.5933c-13.116 8.6795-25.13 40.972-18.802 50.535 10.156 15.347 115.26 97.275 141.69 110.45 7.3652 3.6702 8.4179 3.5075 18.616-2.8772zm-2039.4 393.9c-32.39-19.2-107.86-136.9-147.41-229.8-24.224-56.902-35.089-89.864-56.203-170.5-7.4169-28.325-18.015-68.078-23.552-88.339-28.746-105.2-31.123-120.31-39.503-251.16-5.773-90.14-5.9313-93.704-5.931-133.5 0.00031-45.523 0.97538-61.915 11.421-192 7.9666-99.211 12.102-129.69 23.494-173.16 3.5547-13.564 12.795-48.89 20.535-78.5 36.44-139.4 59.37-209.14 94.43-287.3 5.0582-11.275 11.383-25.9 14.055-32.5 7.0932-17.521 17.626-37.621 30.132-57.5 6.0549-9.625 17.538-28.3 25.518-41.5 24.35-40.278 32.092-51.658 52.628-77.359 7.1893-8.9976 17.903-23.173 23.809-31.5 13.882-19.574 27.431-37.372 38.933-51.141 8.3472-9.992 16.186-20.291 38.556-50.656 28.76-39.04 108.82-121.36 138.88-142.81 11.172-7.9704 18.5-14.565 21.916-19.722 3.9358-5.942 8.9001-9.3129 13.715-9.3129 5.2533 0 12.058-3.5885 15.305-8.0712l2.7569-3.8058 3.6532 3.0113c5.9764 4.9263 3.8433 7.2861-67.623 74.809-25.033 23.652-40.099 39.626-42.267 44.815-2.2014 5.2686-18.236 28.239-43.239 61.942-44.814 60.408-64.716 90.348-69.262 104.2-2.3561 7.177-7.5685 16.172-19.472 33.602-8.5091 12.46-17.606 27.53-21.597 35.777-1.705 3.5236-2.8122 4.7042-4.2204 4.5-1.571-0.22785-4.8626 5.3904-18.586 31.723-9.1725 17.6-18.737 34.925-21.254 38.5-6.0035 8.5265-8.5377 13.676-10.196 20.719-0.74884 3.1798-5.6758 14.556-10.949 25.281-96.414 196.1-140.17 384.51-154.9 667-1.7476 33.506-1.7411 184.04 0.009 216 12.273 224.08 45.644 374.31 133.75 602.14 32.99 85.308 39.206 99.802 53.961 125.84 19.456 34.329 18.88 52.339-1.2901 40.348zm2520.2-416.5c-1.1779-3.4318-0.6801-25.128 1.0496-45.75 0.8535-10.175 2.6889-34.25 4.0787-53.5 3.1706-43.915 5.4604-67.148 16.015-162.5 16.967-153.28 19.58-300.9 6.4552-364.69-3.1922-15.514-7.6967-42.108-10.929-64.525-5.5941-38.792-10.889-68.735-23.059-130.4-13.771-69.778-13.912-77.921-1.3643-79.126 12.285-1.1804 16.643 8.0847 31.902 67.815 9.844 38.534 14.636 55.749 22.033 79.158 2.4791 7.845 5.8755 20.114 7.5476 27.264 14.758 63.104 18.074 77.666 20.269 89 1.3848 7.15 2.7693 14.8 3.0766 17 0.3074 2.2 2.7859 17.95 5.5078 35 18.044 113.02 22.189 267.28 8.0415 299.26-2.8172 6.3688-6.4481 23.823-10.45 50.238-14.118 93.175-19.538 113.4-52.528 196-14.501 36.308-24.094 50.101-27.646 39.75zm-1583.4-339.8c-17.217-2.1338-32.26-8.6304-33.933-14.654-3.2773-11.802 1.8932-43.359 8.6788-52.968 3.909-5.5356 8.3598-15.537 9.3869-21.093 1.3022-7.0443 6.1424-16.734 14.835-29.699 15.609-23.28 49.709-81.321 85.507-145.54 48.828-87.593 64.911-114.48 72.935-121.94 3.0845-2.8672 5.5902-10.513 5.5902-17.059 0-6.1797 2.5672-14.511 6.0163-19.524 7.18-10.436 77.034-148.11 97.408-191.98 28.736-61.874 22.198-64.516 100.53 40.629 98.663 132.43 91.912 122.76 130.74 187.25 19.015 31.58 30.519 50.074 54.084 86.946 5.2099 8.1518 16.509 24.802 25.108 37 19.147 27.159 29.878 43.594 47.13 72.179 16.372 27.127 37.45 59.249 54.41 82.918 37.321 52.085 39.231 61.789 13.573 68.962-15.813 4.4207-35.385 5.8891-128.5 9.6407-59.473 2.3962-106.31 6.0083-123 9.4853-14.829 3.0898-51.797 5.4698-85.5 5.5045-42.748 0.044-99.425 2.5662-168.5 7.4986-92.08 6.5752-165.1 9.0991-186.5 6.4466zm605.23-63.514c62.3-12.992 60.874-10.465 30.184-53.477-16.704-23.411-38.899-57.091-53.354-80.965-60.557-100.02-152.69-232.45-171.14-246-5.3-4-9.9-10.3-9.9-13.8 0-14.5-80.4-128.3-90.6-128.3-8.4915 0-25.331 34.503-28.552 58.5-1.7139 12.769 5.8276 28.736 27.02 57.204 13.983 18.784 26.173 36.356 26.173 37.728 0 4.0969 38.081 57.809 64.582 91.09 23.741 29.815 43.901 59.249 57.175 83.477 10.638 19.417 13.922 24.69 31.768 51.018 8.3946 12.385 18.082 27.685 21.527 34 3.4449 6.3153 10.538 18.457 15.761 26.982 27.768 45.315 35.188 58.205 35.188 61.127 0 4.9961 23.476 23.837 29.734 23.863 1.2287 0.01 7.7537-1.1416 14.5-2.5484zm-1125.7-326c-97.739-18.298-111.25-22.747-130.32-42.917-14.784-15.631-10.466-36.728 14.492-70.807 20.36-27.801 66.734-118.08 72.559-141.26 2.2726-9.0423 4.2688-13.392 10.085-21.974 15.211-22.445 9.8439-37.062-15.812-43.066-6.05-1.4157-19.1-4.7722-29-7.459-28.468-7.7258-57.468-12.912-120.05-21.472-93.272-12.756-97.015-14.458-96.867-44.057 0.26802-53.808 24.38-120.05 61.865-169.95 20.511-27.308 77.975-70.499 97.152-73.022 7.2928-0.95936 12.501-3.1112 20.846-8.6132 40.619-26.781 163.64-28.874 236.83-4.0298 42.166 14.314 113.11 56.599 128.81 76.775 2.5014 3.2147 9.4693 11.212 15.484 17.771 23.948 26.115 29.478 32.922 40.717 50.114 30.365 46.451 49.956 124.21 50.124 198.96l0.054 24-3.8148 12.5c-40.36 132.25-50.661 149.28-124.64 206.13-37.991 29.193-46.191 34.045-66.817 39.536-73.252 19.5-133.82 28.058-161.68 22.842zm161.07-60.866c18.642-6.3454 37.39-18.958 58.925-39.639 6.6-6.3383 16.05-14.872 21-18.963 35.151-29.052 62.16-79.53 75.724-141.52 4.8206-22.031 2.6555-119.91-3.313-149.77-5.7254-28.645-32.792-80.265-57.284-109.25-21.731-25.718-63.672-64.774-73.152-68.121-1.6366-0.57782-6.7453-2.2724-11.353-3.7658-4.6074-1.4934-15.252-5.826-23.656-9.628-70.7-31.92-165.74-40.6-227.5-20.73-49.176 15.821-95 40.768-95 51.721 0 5.2029 5.5263 4.4201 34.273-4.8545 42.152-13.6 117.93-18.899 150.75-10.542 19.444 4.9505 111.29 50.94 129.67 64.931 20.73 15.777 60.637 70.69 78.273 107.71 45.09 94.637 20.956 213.25-69.323 340.71-10.29 14.528-6.6707 18.095 11.932 11.763zm1450.9 21.3c-30.008-2.2387-46.591-6.3148-55.814-13.719-3.6662-2.9433-5.5315-3.7513-17.686-7.6616-14.305-4.6024-43.7-24.295-47.714-31.966-3.6704-7.0138 1.2015-31.57 9.5878-48.325 2.6773-5.3491 7.4444-17.151 10.593-26.226 6.4992-18.729 12.54-34.133 22.738-57.979 8.1151-18.976 15.714-38.256 23.261-59.021 6.5076-17.905 16.129-41.482 25.428-62.314 16.421-36.785 16.118-46.021-1.7271-52.737-19.033-7.1626-90.098-14.658-174.67-18.422-68.824-3.0633-72.142-5.4737-61.982-45.027 19.941-77.628 73.881-154.83 132.12-189.11 22.742-13.384 70.989-32.119 106.5-41.357 65.973-17.16 191-11.135 216.83 10.448 4.0681 3.3988 10.798 5.5182 17.524 5.5182 4.3465 0 8.2986 1.7971 9.0317 4.1069 0.8891 2.8014 9.8292 10.36 18.293 15.465 31.759 19.159 76.241 63.192 99.431 98.428 17.403 26.443 33.698 76.967 46.927 145.5 11.286 58.468-12.735 187.93-44.071 237.52-25.022 39.601-88.252 95.301-112.48 99.089-8.7491 1.3676-17.325 4.3198-31.63 10.889-46.364 21.29-122.19 31.997-190.5 26.901zm167.63-51.888c82.712-27.711 128.82-70.251 155.26-143.26 27.349-75.5 28.48-188.03 2.5401-252.75-2.0943-5.225-4.7912-13.1-5.993-17.5-7.4765-27.373-48.648-82.383-81.441-108.82-67.531-54.432-157.31-68.974-263-42.597-44.875 11.2-83.46 28.209-82.303 36.282 0.6877 4.798 3.7619 5.1669 38.803 4.656 88.369-1.2886 91.646-1.055 121.5 8.6623 47.965 15.612 73.933 31.09 113.18 67.457 34.447 31.923 46.283 47.877 48.23 65.007 1.2479 10.982 2.8216 14.671 8.0132 18.783 19.408 15.372 31.736 109.49 21.558 164.6-15.21 82.35-39.955 136.93-81.716 180.25-21.54 22.342-20.032 27.739 5.3713 19.228zm-2339.1-684.76c6.325-3.5731 17.625-10.864 25.111-16.203 7.4858-5.3383 24.728-16.869 38.315-25.623 46.268-29.809 90.044-59.185 104.07-69.837 7.7-5.8464 15.91-11.557 18.244-12.691 4.2893-2.0831 6.8845-4.4226 3.5575-3.207-3.2743 1.1963-11.633 6.8526-24.302 16.445-13.432 10.17-48.191 33.651-80.5 54.381-29.363 18.84-49.699 32.328-61 40.459-10.553 7.5931-22.738 15.035-36 21.987-4.4 2.3065-8.45 4.6591-9 5.2282-1.429 1.4784 8.1226-3.3808 21.5-10.938zm287-201.32c0.825-0.95851 13.875-11.287 29-22.952 26.08-20.114 32.673-25.44 29-23.425-2.2165 1.2154-76 58.564-76 59.071 0 0.73013 16.401-10.836 18-12.694zm231.64-44.453c15.657-1.8315 23.984-3.7327 30.245-6.9056 7.2178-3.6575 22.197-7.8397 46.734-13.048 12.035-2.5545 34.032-7.5191 48.882-11.032 36.917-8.7341 61.995-12.833 119-19.449 14.3-1.6598 34.775-4.2 45.5-5.645 23.91-3.2214 33.454-2.7312 80.79 4.1498 16.891 2.4553 31.248 4.4644 31.905 4.4648 1.193 0.00058 35.254-36.704 45.47-48.999 12.88-15.501 14.95-18.953 12.871-21.458-1.0565-1.273-0.4487-2.4034 3.7795-7.0299 2.7712-3.0321 6.2775-8.1003 7.7918-11.263 1.5143-3.1624 2.8954-5.9353 3.0692-6.1622 0.1737-0.22681 4.5416 0.89819 9.7065 2.5l9.3906 2.9124-0.4887 7.5c-0.4406 6.763 0.8932 15.824 3.0914 21 0.4606 1.0845-0.8969 2.3002-4.8999 4.3887-11.193 5.8397-25.476 24.534-25.476 33.346 0 8.3212 7.6081 9.5873 36 5.9908 16.878-2.138 58.303-5.4346 79.673-6.3404 13.784-0.58424 16.236-0.92779 16.602-2.3255 0.4091-1.5643 85.836-7.2049 107.41-7.0922 26.019 0.13595 8.0057-16.036-57.685-51.789l-16.5-8.9803-3.3261-6.5759c-7.6315-15.088-19.819-24.199-37.593-28.105l-2.9193-0.64143 3.0742-3.0742 3.0743-3.0742 2.845 2.0102c5.5583 3.9274 18.051 9.6099 38.311 17.426 42.432 16.369 61.957 27.842 101.09 59.4 23.32 18.804 21.947 18.434 68.402 18.44 35.74 0.004 55.426 0.96325 72.783 3.5461 33.399 4.9698 32.685-1.8747-6.0896-58.366-23.7-34.41-25.7-39.19-17.1-39.19 11.704 0 37.746 27.777 66.953 71.416 24.279 36.276 22.476 35.553 62.416 25.041 86.807-22.847 214.33-32.58 281.73-21.502 44.611 7.3325 64.77 7.8999 64.77 1.8229 0-7.5726-47.365-42.856-78.301-58.329-28.6-14.3-56.7-36.4-56.7-44.59 0-11.217 95.37 30.436 147.16 64.272 10.811 7.0635 33.236 20.968 49.835 30.899l30.179 18.057 68.665-1.5443c116.15-2.6124 159.92-4.8345 169.89-8.6257 4.0204-1.5286 0.9764-3.9244-15.653-12.32-52.8-26.69-133.9-59.19-186-74.58-54.6-16.11-121-36.857-141.2-44.068-38-13.618-142.1-32.506-217.3-39.43-21.725-2.0001-31.961-3.2508-41.418-5.0605-9.4033-1.7994-9.0818-1.81-9.0806 0.29888 0.001 1.639-1.6319 1.7068-25.75 1.0683-383.24-10.145-590.69 24.207-897.75 148.67-86.977 35.254-258.42 116.73-250.87 119.22 0.47658 0.15723 15.622 1.5973 33.657 3.2002 26.925 2.393 33.275 3.2432 35.5 4.753 5.3028 3.5981 27.168 3.9242 53.848 0.80319zm1018.4-248.02c0.03-6.4574 0.1408-6.8082 1.5699-4.95 1.0916 1.4194 1.3578 3.1611 0.917 6-1.0909 7.0259-2.5211 6.422-2.4869-1.05zm-1157.5 220.42c11.55-8.857 29.1-21.996 39-29.198 20.299-14.766 51.791-38.812 80-61.084 10.45-8.2505 28.225-21.951 39.5-30.445 22.775-17.158 22.495-16.936 19-15.117-3.7118 1.9319-26.048 18.905-67.019 50.927-20.085 15.698-43.935 34.04-53 40.76-46.905 34.77-57.454 42.66-68.313 51.094-6.5076 5.0541-11.458 9.1843-11 9.1782 0.45756-0.006 10.282-7.2577 21.832-16.115zm611 7.5218c7.7-0.83603 35.6-4.3867 62-7.8904 56.174-7.4552 79.016-9.8957 112.5-12.02 39.459-2.503 42-3.3464 42-13.941v-5.5454l-5.75 0.0608c-3.1625 0.0334-22.968 1.0459-44.012 2.25-36.093 2.0651-38.293 2.0915-38.809 0.46599-1.2487-3.9347-61.243 0.97224-95.429 7.8051-50.005 9.9946-72 17.076-72 23.181 0 8.5644 5.4044 9.3351 39.5 5.6332zm1056.5-27.86c110.27-15.617 173.21-19.864 192.03-12.955 15.411 5.657 27.154-1.4895 15.971-9.7195-9.6955-7.1351-202.8-5.3613-247.5 2.2736-13.342 2.2786-16.636 14.191-5.4949 19.874 9.4784 4.8355 14.182 4.8906 44.995 0.52643zm-661.5-1.5512c34.67-2.0253 36.4-6.5828 4.5-11.857-48.237-7.9751-91.378-6.3661-87.68 3.2701 2.727 7.1064 40.959 11.053 83.18 8.5868zm163-238.84c-8.1167-4.9497-10.712-12.928-6.4684-19.887 1.0899-1.7875 1.6216-3.25 1.1815-3.25-1.4391 0-4.1705 6.9853-4.1705 10.666 0 5.6999 6.8717 14.253 11.5 14.314 0.55 0.0072-0.3692-0.82184-2.0426-1.8423zm-282.7-7.853c-1.5125-0.22912-3.9875-0.22912-5.5 0s-0.275 0.41659 2.75 0.41659 4.2625-0.18747 2.75-0.41659zm337.2-11.284c-0.825-0.53316-2.175-0.96937-3-0.96937-1.3333 0-1.3333 0.10771 0 0.96937 0.825 0.53316 2.175 0.96937 3 0.96937 1.3333 0 1.3333-0.10771 0-0.96937z"/>
<path id="path4135" d="m2677.3 675.55c-35.329 0.1217-70.673 4.7392-104.46 15.266-22.573 7.0382-45.819 13.649-66.104 26.123-2.9332 1.4641-8.0515 7.2383-2.8105 9.0312 42.478 4.7278 85.579 2.0794 128.01 5.4673 21.785 2.5097 42.106 11.424 62.288 19.469 38.912 16.785 72.325 44.893 101.82 75.232 12.1 13.153 24.32 27.602 27.958 45.605 5.621 18.025 19.412 32.402 23.189 51.195 9.7338 39.534 10.593 81.297 6.745 121.74-3.761 32.818-13.316 64.916-24.73 95.783-12.129 32.354-31.035 61.694-53.49 87.898-6.0764 8.4024-13.961 15.81-18.619 25.096 0.2552 5.6908 7.8482 2.5582 11.24 2.4023 35.08-8.949 68.86-24.508 97.385-46.961 39.033-30.508 63.193-76.182 75.786-123.38 12.588-42.528 13.253-87.322 12.954-131.32-0.1048-25.472-2.976-50.972-10.551-75.365-9.6577-33.665-22.702-67.051-44.683-94.721-30.743-42.264-72.888-77.057-122.56-94.428-31.618-12.389-65.772-14.344-99.365-14.137zm-1679.4 35.23c-54.383 0.26894-108.46 16.224-154.9 44.35-7.1822 5.3571-16.609 9.9934-19.998 18.781-0.53377 5.8219 6.8506 4.0436 10.279 3.2129 22.33-5.6049 44.338-12.351 67.248-15.581 32.381-4.7841 65.672-8.7304 98.033-3.4101 30.799 7.6619 58.949 22.99 87.176 37.009 28.455 14 56.135 30.85 76.553 55.636 22.451 27.245 41.743 57.186 56.604 89.112 9.3051 20.421 15.747 42.2 16.425 64.795 1.7468 34.242 2.3587 68.854-7.8089 101.84-13.851 52.048-38.669 100.46-68.266 145.22-6.4972 10.814-13.963 21.314-19.549 32.511 1.6957 3.9288 8.1204 1.4968 11.969 1.913 19.325-3.4457 35.289-16.269 50.717-27.607 25.008-20.47 49.761-42.012 69.062-68.126 19.783-29.001 33.625-62.059 41.52-96.223 8.8164-40.095 6.4084-81.523 3.9296-122.17-2.1265-29.826-8.4386-59.64-22.326-86.33-21.644-45.927-57.356-83.1-94.265-117.12-18.388-15.857-42.66-21.774-64.592-30.977-44.061-16.276-90.63-27.173-137.81-26.832zm830.03 437.31c-7.572 1.7324-10.519 10.575-14.141 16.562-6.5512 14.43-12.548 29.616-14.318 45.445 1.556 17.231 13.262 31.26 21.669 45.714 17.77 26.236 35.474 52.525 53.268 78.741 36.505 51.264 76.641 100.1 107.92 154.82 23.424 36.942 46.832 73.727 68.941 111.47 10.112 16.379 19.097 33.468 29.035 49.786 7.9375 10.023 17.85 21.171 31.213 22.962 19.402-4.0087 39.843-5.8899 57.988-14.52 4.3068-1.7389 9.1315-6.7646 5.4043-11.402-17.602-30.482-38.942-58.563-57.479-88.45-41.978-66.215-83.722-132.69-129.19-196.62-18.233-25.95-37.276-51.359-58.012-75.362-12.711-15.654-19.447-34.963-30.998-51.395-18.986-28.856-38.478-57.765-62.486-82.734-2.4871-2.2243-5.2398-5.0275-8.8184-5.0176zm1097 568.32c-7.2506 2.4608-11.413 10.084-16.496 15.432-12.238 16.639-24.059 34.325-30.17 54.22-19.947 87.316-36.397 175.39-52.893 263.41-7.7983 45.839-19.04 91.969-15.96 138.79 0.2335 8.606 4.2574 19.514 14.085 20.468 10.508-1.9689 17.333-11.942 22.342-20.654 7.5089-25.342 8.0185-52.142 14.454-77.765 4.8222-20.969 12.928-41.327 14.65-63.042 8.9989-60.905 21.378-121.57 33.076-182.13 7.7904-42.367 19.124-84.183 23.556-127.11 0.1046-7.0575 1.7923-17.297-5.461-21.496-0.3843-0.108-0.7849-0.1507-1.1836-0.1368zm-2309.9 13.703c-4.2777 6.8961-9.8946 13.49-12.895 20.945 4.492 3.287 10.858 4.8234 13.906 10.172 10.16 16.344 12.417 36.177 16.71 54.557 10.652 58.556 21.559 117.19 38.437 174.34 25.487 89.463 51.493 178.81 80.139 267.32 6.3563 16.974 11.445 35.234 22.935 49.602 6.344 7.6717 17.386 5.87 24.973 1.2558 11.566-5.4905 24.491-15.414 23.279-29.736-1.3289-12.47-7.6705-23.746-10.329-35.953-30.845-110.73-55.037-223.21-84.343-334.37-8.7756-30.832-16.686-63.838-39.232-87.956-23.284-26.91-44.277-55.722-67.067-83.022-2.2744-2.2747-2.4969-8.3026-6.5128-7.1596zm1868.3 206.6c-9.5285 1.331-13.564 12.021-17.481 19.511-4.9088 11.667-10.101 27.345-0.5171 38.11 19.834 20.438 42.894 37.458 65.092 55.21 24.556 18.288 48.432 38.197 76.125 51.635 7.2794 2.522 14.218-3.5118 20.195-6.9043 7.816-5.1004 17.432-13.717 13.293-24.092-7.0207-14.949-20.931-25.102-32.467-36.408-33.5-29.367-66.914-58.943-102.21-86.152-6.6969-4.4113-13.601-10.666-22.03-10.911zm-1254.3 44.318c-17.359 0.7913-31.04 13.25-45.098 22.01-41.686 29.6-81.758 61.717-118.43 97.381-6.3495 7.0592-14.565 13.916-16.963 23.423 1.6682 6.9607 10.256 9.7011 16.674 10.092 30.766 1.5595 62.593-4.4551 88.561-21.704 24.799-15.736 45.595-36.807 69.779-53.424 11.421-8.6324 23.929-16.546 32.948-27.808 6.7113-14.187-0.4859-30.654-9.0879-42.363-3.9206-6.4418-11.28-8.2544-18.381-7.6074zm879.6 23.135c-10.01 1-15.737 11.09-21.133 18.436-5.3405 7.9555-9.8263 18.259-4.9668 27.56 13.218 29.21 40.9 47.658 63.871 68.593 30.512 25.818 60.231 52.765 92.803 76.001 10.23 7.0566 23.904 8.583 35.099 2.8409 7.7098-3.8459 19.282-7.3581 20.26-17.444-1.1564-11.537-12.269-18.505-19.823-26.053-51.495-47.584-99.914-98.472-152.16-145.26-3.6891-3.5267-8.9786-4.7451-13.947-4.6738zm-474.76 21.172c-10.65 1.5171-17.846 11.065-26.171 16.972-50.229 42.757-99.547 86.663-146.77 132.73-5.2086 5.4836-14.32 12.458-9.7441 21.027 6.0961 8.8663 16.219 14.924 26.537 17.627 16.826 3.906 32.389-6.3571 44.524-16.821 37.736-30.834 74.853-62.553 109.83-96.501 9.3009-10.737 20.309-20.923 25.689-34.328 2.0433-9.8992-5.7595-18.415-9.3919-26.997-3.3554-5.5118-6.9771-13.585-14.508-13.71zm1059.8 158.12c-19.057 1.3596-37.251 13.164-45.42 30.613-19.847 37.578-34.54 77.725-46.889 118.32-4.2105 16.089-9.7165 32.975-6.8258 49.732 4.2591 11.752 20.08 21.47 31.432 13.051 7.0644-6.804 8.8229-17.289 13.181-25.78 14.605-38.026 30.767-75.417 46.33-113.05 7.8055-21.006 16.962-41.88 20.777-64.062 0.5675-6.6353-7.233-9.2631-12.586-8.8262zm-248.15 90.891c-19.848 0.4731-40.451 6.8733-53.684 22.425-17.245 19.08-27.534 43.088-40.35 65.113-18.972 35.726-38.574 71.215-55.056 108.18-5.2331 14.537 2.1905 34.753 18.932 37.076 13.946 2.0645 23.462-10.973 31.205-20.467 27.477-37.637 49.592-78.814 74.094-118.38 14.36-25.097 31.359-48.76 43.664-74.985 3.7683-6.4359 1.5671-16.14-6.5039-17.719-3.9717-1.2119-8.1795-1.3484-12.301-1.2441zm-1464 4.5624c-7.5246-0.011-16.651 5.0204-15.428 13.666 2.553 18.042 11.907 34.246 18.859 50.863 18.935 39.946 37.01 80.346 57.496 119.53 4.6184 10.416 14.228 17.676 24.916 20.967 9.6952 1.2542 16.903-8.3553 20.469-16.223 4.0551-8.5097 3.476-18.24-0.2617-26.736-14.177-39.706-30.223-78.835-49.016-116.59-10.239-18.99-24.466-39.406-46.803-44.519-3.3556-0.7198-6.8005-1.0625-10.232-0.959zm368.69 85.498c-5.5326-1.1798-9.3876 4.324-8.2637 9.375 2.1807 17.332 14.915 30.504 22.172 45.758 27.287 47.992 51.14 97.938 80.176 144.92 7.1385 10.284 21.493 10.561 31.967 5.7461 8.8643-4.4365 19.882-7.2532 25.705-15.85 3.9662-10.003-3.6875-19.888-7.4903-28.703-20.199-36.638-39.077-74.113-61.805-109.28-9.7367-15.59-24.006-27.846-40.517-35.802-13.334-6.5047-26.554-16.019-41.944-16.163zm729.71 13.68c-19.693-0.5445-39.186 6.8927-53.33 20.646-27.586 26.234-47.979 58.8-69.683 89.796-15.153 23.326-32.2 45.673-44.354 70.784-5.0233 9.2852-2.0794 20.037 3.0156 28.57 3.6067 6.9848 9.8686 15.469 18.881 12.943 16.283-4.174 25.397-19.989 35.673-31.923 37.772-48.468 69.781-101.3 108.47-148.99 4.2838-6.0979 10.53-10.12 15.706-15.248 5.1519-6.4115 9.6704-13.801 12.387-21.406-7.4459-5.6107-17.865-4.9622-26.77-5.1719z" fill="#cd5200"/>
</svg>
