<svg xmlns="http://www.w3.org/2000/svg" width="206" height="81" stroke="none" stroke-linecap="round" stroke-linejoin="round" fill="#fff" fill-rule="evenodd"><path d="M.5 1.5h205v68.57H103V81.5H57.444V70.07H.5V1.5zm11.39 57.143h22.778V24.357h11.39v34.286h11.388V12.93H11.89v45.714zM68.833 12.93V70.07H91.61V58.643h22.778V12.93H68.833zM91.61 24.357H103v22.857H91.61V24.357zm34.167-11.428v45.714h22.778V24.357h11.388v34.286h11.39V24.357h11.39v34.286h11.39V12.93h-68.333z" fill="#cb3837"/><path d="M11.9 58.643h22.778V24.358h11.4v34.285h11.4V12.93H11.9zM68.833 12.93v57.143H91.6v-11.43h22.778V12.93H68.833zM103 47.215H91.6V24.358H103v22.857zm22.778-34.285v45.714h22.778V24.358h11.4v34.285h11.4V24.358h11.388v34.285h11.4V12.93z"/></svg>