<?xml version="1.0" standalone="no"?>
<!DOCTYPE svg PUBLIC "-//W3C//DTD SVG 20010904//EN"
 "http://www.w3.org/TR/2001/REC-SVG-20010904/DTD/svg10.dtd">
<svg version="1.0" xmlns="http://www.w3.org/2000/svg"
 width="523.000000pt" height="478.000000pt" viewBox="0 0 523.000000 478.000000"
 preserveAspectRatio="xMidYMid meet">
<metadata>
Created by potrace 1.16, written by Peter Selinger 2001-2019
</metadata>
<g transform="translate(0.000000,478.000000) scale(0.100000,-0.100000)"
fill="#000000" stroke="none">
<path d="M3535 2798 c-2 -7 -11 -51 -19 -98 -9 -47 -36 -157 -61 -245 -106
-372 -130 -496 -103 -523 14 -14 94 -16 103 -2 3 6 33 10 67 10 49 0 72 6 121
33 84 44 177 133 216 208 57 106 53 232 -9 264 -50 26 -148 20 -214 -13 -31
-16 -56 -25 -56 -21 0 4 16 62 35 129 39 135 46 228 19 254 -19 19 -93 22 -99
4z m228 -495 c-2 -52 -53 -136 -111 -181 -41 -33 -137 -82 -161 -82 -16 0 -12
33 14 123 15 53 23 63 78 104 72 53 134 84 162 80 17 -2 20 -9 18 -44z"/>
<path d="M2236 2765 c-71 -29 -133 -86 -146 -135 -17 -60 -12 -123 14 -172
l23 -44 -50 -29 c-75 -42 -153 -122 -166 -170 -32 -119 4 -202 113 -255 63
-31 68 -32 174 -29 102 4 113 6 186 42 55 28 85 50 107 79 73 102 58 193 -47
294 l-64 61 77 31 c103 40 180 62 217 62 37 0 49 7 65 37 26 49 8 93 -38 93
-19 0 -32 11 -51 40 -50 82 -133 119 -265 119 -73 0 -101 -4 -149 -24z m240
-111 c19 -9 41 -26 49 -37 14 -20 10 -22 -118 -74 -73 -30 -137 -56 -142 -59
-14 -6 -45 48 -45 78 0 27 51 81 90 97 39 15 128 13 166 -5z m-164 -367 c29
-23 61 -58 70 -76 15 -30 15 -37 3 -62 -31 -59 -110 -100 -196 -100 -60 -1
-102 15 -133 50 -21 23 -17 64 11 107 21 32 150 124 174 124 10 0 42 -19 71
-43z"/>
<path d="M2965 2778 c-8 -20 -43 -144 -70 -243 -14 -49 -52 -186 -85 -304 -78
-276 -78 -301 1 -301 46 0 52 8 73 95 35 146 32 139 83 164 l47 23 23 -26 c28
-32 40 -79 49 -176 7 -84 19 -100 70 -100 37 0 63 21 65 53 8 136 -32 279 -89
322 -10 8 4 24 62 70 80 64 106 98 106 138 0 30 -16 45 -58 53 -28 6 -39 -2
-137 -95 -96 -91 -142 -123 -130 -88 32 90 115 371 115 386 0 11 -9 25 -19 31
-28 14 -101 13 -106 -2z"/>
<path d="M1725 2591 c-170 -65 -395 -159 -421 -176 -19 -12 -24 -24 -24 -55 0
-50 11 -58 245 -171 198 -96 253 -109 275 -70 14 27 13 68 -2 78 -7 4 -78 38
-158 75 -79 38 -148 72 -153 77 -11 11 39 34 237 107 194 72 186 67 186 112 0
74 -38 79 -185 23z"/>
</g>
</svg>
