<svg id="Layer_1" data-name="Layer 1" xmlns="http://www.w3.org/2000/svg" xmlns:xlink="http://www.w3.org/1999/xlink" viewBox="0 0 758 768"><defs><style>.cls-1{fill:none;}.cls-2{clip-path:url(#clip-path);}.cls-3{fill:#07202a;}</style><clipPath id="clip-path"><rect class="cls-1" x="-0.24" y="2.54" width="741.24" height="763.4"/></clipPath></defs><g class="cls-2"><path class="cls-3" d="M317,47.86c169.2,0,247.75,87.62,247.75,184.3,0,138-97.69,204.45-238.68,204.45H220.32V47.86ZM720.86,700.48c-13.09,0-23.17,12.08-42.3,12.08-30.22,0-66.47-51.36-106.76-113.8C529.5,534.3,473.11,496,396.56,479.92c170.21-13.1,290.06-106.76,290.06-249.77,0-137-145-227.61-344.44-227.61H25.94C9.83,2.54-.24,12.61-.24,27.72-.24,44.84,9.83,52.9,25.94,52.9h81.58V700.48H25.94c-16.11,0-26.18,8-26.18,25.17,0,15.11,10.07,25.18,26.18,25.18h276c16.12,0,26.19-10.07,26.19-25.18,0-17.12-10.07-25.17-26.19-25.17H220.32V481.93c109.77,4,157.11,41.29,223.58,141,70.5,99.7,140,143,215.52,143,31.22,0,81.58-17.12,81.58-44.31,0-12.09-7-21.15-20.14-21.15"/></g></svg>