<svg id="svg" version="1.1" xmlns="http://www.w3.org/2000/svg" xmlns:xlink="http://www.w3.org/1999/xlink" width="400" height="385.7142857142857" viewBox="0, 0, 400,385.7142857142857"><g id="svgg"><path id="path0" d="M0.000 192.864 L 0.000 385.728 200.000 385.728 L 400.000 385.728 400.000 192.864 L 400.000 0.000 200.000 0.000 L 0.000 0.000 0.000 192.864 M194.793 153.134 C 194.793 153.346,195.400 153.520,196.143 153.520 C 196.885 153.520,197.493 153.693,197.493 153.905 C 197.493 154.118,198.014 154.291,198.650 154.291 C 199.421 154.291,199.807 154.484,199.807 154.870 C 199.807 155.188,199.989 155.448,200.210 155.448 C 200.734 155.448,202.507 157.222,202.507 157.745 C 202.507 157.967,202.768 158.149,203.086 158.149 C 203.490 158.149,203.664 158.556,203.664 159.499 C 203.664 160.241,203.838 160.849,204.050 160.849 C 204.262 160.849,204.436 161.456,204.436 162.199 C 204.436 162.941,204.609 163.549,204.822 163.549 C 205.047 163.549,205.207 164.834,205.207 166.635 C 205.207 169.120,205.320 169.720,205.786 169.720 C 206.279 169.720,206.365 170.770,206.365 176.856 C 206.365 182.942,206.279 183.992,205.786 183.992 C 205.382 183.992,205.207 184.399,205.207 185.342 C 205.207 186.085,205.034 186.692,204.822 186.692 C 204.609 186.692,204.436 187.040,204.436 187.464 C 204.436 187.888,204.262 188.235,204.050 188.235 C 203.838 188.235,203.664 188.496,203.664 188.814 C 203.664 189.132,203.404 189.392,203.086 189.392 C 202.768 189.392,202.507 189.566,202.507 189.778 C 202.507 189.990,202.160 190.164,201.736 190.164 C 201.311 190.164,200.964 190.338,200.964 190.550 C 200.964 190.762,200.357 190.935,199.614 190.935 C 198.671 190.935,198.264 191.110,198.264 191.514 C 198.264 192.007,197.214 192.093,191.128 192.093 C 185.042 192.093,183.992 192.007,183.992 191.514 C 183.992 191.048,183.392 190.935,180.906 190.935 C 179.106 190.935,177.821 190.775,177.821 190.550 C 177.821 190.338,177.213 190.164,176.471 190.164 C 175.728 190.164,175.121 189.990,175.121 189.778 C 175.121 189.566,174.513 189.392,173.770 189.392 C 172.828 189.392,172.420 189.218,172.420 188.814 C 172.420 188.496,172.239 188.235,172.017 188.235 C 171.494 188.235,169.720 186.462,169.720 185.938 C 169.720 185.717,169.460 185.535,169.142 185.535 C 168.756 185.535,168.563 185.149,168.563 184.378 C 168.563 183.742,168.390 183.221,168.177 183.221 C 167.965 183.221,167.792 182.613,167.792 181.871 C 167.792 181.128,167.618 180.521,167.406 180.521 C 167.186 180.521,167.020 179.364,167.020 177.821 C 167.020 176.278,167.186 175.121,167.406 175.121 C 167.645 175.121,167.792 173.063,167.792 169.720 C 167.792 166.377,167.939 164.320,168.177 164.320 C 168.390 164.320,168.563 163.713,168.563 162.970 C 168.563 162.027,168.738 161.620,169.142 161.620 C 169.502 161.620,169.720 161.256,169.720 160.656 C 169.720 160.125,169.894 159.691,170.106 159.691 C 170.318 159.691,170.492 159.344,170.492 158.920 C 170.492 158.496,170.665 158.149,170.878 158.149 C 171.090 158.149,171.263 157.888,171.263 157.570 C 171.263 157.252,171.524 156.991,171.842 156.991 C 172.160 156.991,172.420 156.818,172.420 156.606 C 172.420 156.393,172.768 156.220,173.192 156.220 C 173.616 156.220,173.963 156.046,173.963 155.834 C 173.963 155.622,174.397 155.448,174.928 155.448 C 175.528 155.448,175.892 155.230,175.892 154.870 C 175.892 154.466,176.299 154.291,177.242 154.291 C 177.985 154.291,178.592 154.118,178.592 153.905 C 178.592 153.667,180.649 153.520,183.992 153.520 C 187.335 153.520,189.392 153.373,189.392 153.134 C 189.392 152.914,190.550 152.748,192.093 152.748 C 193.635 152.748,194.793 152.914,194.793 153.134 " stroke="none" fill="#fcfcfc" fill-rule="evenodd"></path><path id="path1" d="M189.392 156.606 C 189.392 156.826,188.235 156.991,186.692 156.991 C 184.549 156.991,183.992 157.111,183.992 157.570 C 183.992 158.020,183.478 158.149,181.678 158.149 C 180.392 158.149,179.364 158.320,179.364 158.534 C 179.364 158.746,179.016 158.920,178.592 158.920 C 178.168 158.920,177.821 159.094,177.821 159.306 C 177.821 159.518,177.560 159.691,177.242 159.691 C 176.924 159.691,176.663 159.873,176.663 160.095 C 176.663 160.618,174.890 162.392,174.367 162.392 C 174.145 162.392,173.963 162.652,173.963 162.970 C 173.963 163.288,173.790 163.549,173.578 163.549 C 173.365 163.549,173.192 163.896,173.192 164.320 C 173.192 164.744,173.018 165.092,172.806 165.092 C 172.592 165.092,172.420 166.120,172.420 167.406 C 172.420 169.206,172.292 169.720,171.842 169.720 C 171.383 169.720,171.263 170.278,171.263 172.420 C 171.263 173.963,171.098 175.121,170.878 175.121 C 170.657 175.121,170.492 176.278,170.492 177.821 C 170.492 179.364,170.657 180.521,170.878 180.521 C 171.090 180.521,171.263 180.868,171.263 181.292 C 171.263 181.721,171.520 182.064,171.842 182.064 C 172.160 182.064,172.420 182.245,172.420 182.467 C 172.420 182.897,174.153 184.764,174.552 184.764 C 174.944 184.764,175.892 185.835,175.892 186.279 C 175.892 186.506,176.326 186.692,176.856 186.692 C 177.387 186.692,177.821 186.866,177.821 187.078 C 177.821 187.290,178.428 187.464,179.171 187.464 C 179.913 187.464,180.521 187.637,180.521 187.850 C 180.521 188.062,181.128 188.235,181.871 188.235 C 182.814 188.235,183.221 188.410,183.221 188.814 C 183.221 189.242,183.671 189.392,184.957 189.392 C 185.911 189.392,186.692 189.566,186.692 189.778 C 186.692 190.015,188.557 190.164,191.514 190.164 C 194.471 190.164,196.336 190.015,196.336 189.778 C 196.336 189.566,196.943 189.392,197.686 189.392 C 198.428 189.392,199.036 189.207,199.036 188.979 C 199.036 188.530,199.985 187.464,200.386 187.464 C 200.708 187.464,201.736 186.436,201.736 186.114 C 201.736 185.713,202.802 184.764,203.251 184.764 C 203.478 184.764,203.664 184.156,203.664 183.414 C 203.664 182.671,203.838 182.064,204.050 182.064 C 204.287 182.064,204.436 180.199,204.436 177.242 C 204.436 174.285,204.287 172.420,204.050 172.420 C 203.838 172.420,203.664 171.553,203.664 170.492 C 203.664 169.035,203.523 168.563,203.086 168.563 C 202.700 168.563,202.507 168.177,202.507 167.406 C 202.507 166.770,202.334 166.249,202.122 166.249 C 201.909 166.249,201.736 165.641,201.736 164.899 C 201.736 164.156,201.562 163.549,201.350 163.549 C 201.138 163.549,200.964 163.115,200.964 162.584 C 200.964 162.054,200.778 161.620,200.551 161.620 C 200.107 161.620,199.036 160.673,199.036 160.280 C 199.036 159.881,197.169 158.149,196.739 158.149 C 196.517 158.149,196.336 157.888,196.336 157.570 C 196.336 157.248,195.993 156.991,195.564 156.991 C 195.140 156.991,194.793 156.818,194.793 156.606 C 194.793 156.385,193.635 156.220,192.093 156.220 C 190.550 156.220,189.392 156.385,189.392 156.606 " stroke="none" fill="#acacac" fill-rule="evenodd"></path><path id="path2" d="" stroke="none" fill="#e8100d4" fill-rule="evenodd"></path><path id="path3" d="" stroke="none" fill="#e8100d4" fill-rule="evenodd"></path><path id="path4" d="" stroke="none" fill="#e8100d4" fill-rule="evenodd"></path></g></svg>